<svg xmlns="http://www.w3.org/2000/svg">
  <!-- Логотип в хедере -->
  <symbol viewBox="0 0 93 40" id="main-logo">
    <path fill-rule="evenodd" clip-rule="evenodd"
      d="M81.507 37.2883C80.4854 38.4725 78.4116 38.2949 78.071 36.5631C77.9084 35.7044 78.145 34.6684 78.5154 33.943C79.3448 32.3591 80.8407 31.0566 82.544 30.6274C82.544 31.6044 82.544 32.8921 82.5144 33.8839C82.4844 34.9793 82.2478 36.4149 81.507 37.2883ZM65.0235 13.8865C65.9715 13.9456 66.7269 14.9816 66.475 16.7431C66.164 18.8304 64.4311 21.0653 62.4615 21.5685C62.1503 20.8285 62.0024 19.3186 62.1799 17.8385C62.5059 15.1296 63.898 13.8271 65.0235 13.8865ZM28.1023 23.9812C26.636 22.0274 26.6951 19.6591 27.1545 17.4092C28.5909 20.636 32.4269 21.1986 34.7964 20.7249C34.4855 23.2116 33.1818 25.3875 30.931 25.3875C29.6721 25.4023 28.7536 24.8546 28.1023 23.9812ZM33.2858 14.8631C34.0084 15.6005 34.4959 16.6754 34.719 17.8684C34.7204 17.8682 34.7224 17.8829 34.7224 17.8829C34.7215 17.878 34.7201 17.8732 34.719 17.8684C33.0615 18.1045 31.4633 17.7936 30.2941 16.891C29.4501 16.225 29.2278 15.1741 29.5833 14.5376C30.1014 13.62 31.6568 13.2202 33.2858 14.8631ZM10.7154 2.72562C11.737 1.52687 13.8105 1.71899 14.1364 3.45099C14.2991 4.29462 14.077 5.33074 13.707 6.05599C12.8773 7.63974 11.3815 8.94224 9.67825 9.38637C9.67825 8.39487 9.66338 7.12174 9.70825 6.13012C9.73763 5.03474 9.97475 3.58412 10.7154 2.72562ZM86.3205 28.3923C86.3351 23.2412 86.3205 18.0901 86.3205 12.939C86.3205 11.6661 82.6624 11.5919 82.544 12.8799C82.544 13.3979 82.544 13.9307 82.529 14.4487C82.47 17.276 81.1223 22.5602 78.8859 24.4845C78.2786 25.0028 77.7305 25.0322 77.3458 24.7509C77.0049 24.4992 76.9159 23.863 76.9159 23.3153V22.6047C76.9159 19.4224 76.9309 16.1362 76.9159 12.9537C76.9159 11.6807 73.2579 11.5919 73.1394 12.8799C73.1394 15.8401 73.1394 18.7119 73.1544 21.6426C70.7401 25.4911 65.1569 27.297 62.8465 22.7379C64.2831 23.2856 65.8084 23.0191 66.8453 22.4715C68.6374 21.5241 69.9998 19.9552 70.2663 17.4685C70.518 10.1857 60.8918 9.19425 58.744 16.61C58.3888 17.8385 58.1963 19.1559 58.2408 20.4436C58.2849 21.6721 58.5368 22.8119 58.9663 23.8185C58.1811 24.5881 57.2779 25.121 56.3746 25.0915C55.1895 25.047 55.3084 23.5817 55.3084 22.7379V17.1871C55.3084 16.5211 55.3084 15.855 55.2489 15.2039C55.0566 13.2647 53.5754 11.7252 51.5021 11.5919C48.5546 11.5476 46.4814 14.286 45.4595 17.2909C45.4449 15.6182 45.4595 14.6264 45.4595 12.939C45.4449 11.6807 42.0534 11.5919 41.6683 12.9241C41.1795 14.6116 39.5799 15.929 38.084 16.7134C37.6251 15.6034 37.0476 14.5821 36.2479 13.7089C32.9598 10.1414 28.206 10.7929 25.4214 13.7382C23.2148 16.0771 22.5486 20.2956 23.7333 23.2559C22.8595 24.2922 21.66 25.1359 20.5936 25.0915C20.0603 25.0619 19.7641 24.7509 19.6308 24.2625C19.4974 23.7887 19.5273 23.2265 19.5273 22.7379C19.5273 20.8876 19.5123 19.0374 19.5273 17.1871C19.5273 16.5211 19.5273 15.855 19.4681 15.2039C19.2754 13.2647 18.135 11.7104 15.9729 11.5774C12.2554 11.4142 10.7596 15.0114 9.66338 17.9716V11.6512C10.4485 11.518 11.204 11.3255 11.959 11.1036C20.1491 8.75 18.5644 0.149992 12.4629 0.00211736C8.34563 -0.0866327 5.90175 2.62199 5.93163 6.73687V9.40125C4.4505 9.17937 3.33963 7.25512 2.71788 6.01174C2.62875 5.81924 2.53988 5.62674 2.45125 5.43424C2.37725 5.24187 2.16988 5.13849 1.977 5.19762C1.81438 5.24187 1.6515 5.30124 1.48838 5.36037C0.89625 5.62687 0.407125 6.08574 0.1705 6.69262C-0.258875 7.77312 0.1705 8.92774 0.9255 9.74174C2.16988 11.0444 4.1545 11.518 5.90175 11.6067C5.88688 16.7431 5.90175 21.8646 5.90175 27.0009C5.961 27.7263 6.9535 27.9188 7.531 27.9334C8.13838 27.9483 9.45625 27.7558 9.47125 26.927L9.51563 26.2904C9.76738 24.011 11.959 14.8929 14.7285 14.878C15.41 14.878 15.7508 15.3221 15.7508 15.9882V24.1146C15.7508 26.6309 17.1724 28.3183 19.7494 28.3183C21.7488 28.3331 23.5553 26.8824 24.6365 25.0767C24.7845 25.2691 24.9031 25.4762 25.066 25.6539C26.4729 27.297 28.5464 28.348 30.9161 28.3628C36.0845 28.2886 38.7355 23.8481 38.5434 19.4815C39.7429 18.8155 40.8241 17.9567 41.6531 16.891V27.0009C41.7125 27.7263 42.7494 27.9188 43.3271 27.9334C43.934 27.9483 45.2524 27.7558 45.2524 26.927L45.3115 26.2904L45.489 24.603C45.7559 22.2495 47.5183 14.8929 50.5246 14.878C51.1908 14.878 51.5319 15.3221 51.5319 15.9882V24.1146C51.5319 26.6309 52.9536 28.3183 55.545 28.3183C57.3373 28.3331 58.9663 27.1638 60.0623 25.6244C61.5135 27.4154 63.7354 28.4663 66.4008 28.4663C69.526 28.4663 71.7916 27.0898 73.3024 24.8694C73.643 26.779 74.6649 28.2886 77.168 28.3183C79.7594 28.3331 81.7294 24.7215 82.544 22.5454V28.3628C81.7735 28.4959 81.0185 28.6884 80.2634 28.9103C72.0733 31.2491 73.643 39.8638 79.7448 39.9971C83.8768 40.1008 86.3055 37.3919 86.2909 33.277C86.2909 32.5814 86.276 31.2788 86.2909 30.5978C87.757 30.8199 88.8825 32.759 89.4899 34.0024C89.5934 34.1948 89.6824 34.387 89.7565 34.5795C89.8453 34.772 90.0377 34.8608 90.2451 34.8163C90.408 34.772 90.5709 34.7129 90.7189 34.6386C91.3263 34.3724 91.8152 33.9284 92.052 33.3066C92.4815 32.2261 92.052 31.0864 91.2818 30.2721C90.0528 28.9549 88.053 28.4959 86.3205 28.3923Z" />
  </symbol>
  <!-- Декор для превью -->
  <symbol viewBox="0 0 1409 611" id="promo-logo">
    <path fill-rule="evenodd" clip-rule="evenodd"
      d="M1245.02 569.578C1229.41 587.667 1197.74 584.954 1192.53 558.502C1190.05 545.384 1193.67 529.559 1199.32 518.479C1211.99 494.286 1234.84 474.39 1260.86 467.833C1260.86 482.757 1260.86 502.427 1260.41 517.576C1259.95 534.308 1256.33 556.237 1245.02 569.578ZM993.234 212.116C1007.71 213.019 1019.25 228.844 1015.41 255.751C1010.66 287.634 984.186 321.772 954.1 329.459C949.345 318.155 947.086 295.092 949.798 272.483C954.777 231.105 976.042 211.209 993.234 212.116ZM429.262 366.314C406.865 336.468 407.768 300.293 414.785 265.926C436.726 315.215 495.321 323.809 531.515 316.572C526.766 354.558 506.851 387.794 472.471 387.794C453.242 388.019 439.212 379.654 429.262 366.314ZM508.44 227.034C519.478 238.298 526.925 254.716 530.333 272.939C530.354 272.937 530.384 273.161 530.384 273.161C530.371 273.086 530.35 273.014 530.333 272.939C505.015 276.546 480.601 271.798 462.743 258.01C449.851 247.837 446.454 231.785 451.884 222.062C459.799 208.045 483.557 201.939 508.44 227.034ZM163.677 41.6338C179.283 23.3229 210.955 26.2576 215.933 52.7139C218.419 65.6003 215.026 81.4271 209.374 92.5053C196.7 116.697 173.852 136.593 147.835 143.377C147.835 128.232 147.608 108.785 148.294 93.6376C148.742 76.9057 152.364 54.7474 163.677 41.6338ZM1318.55 433.692C1318.77 355.01 1318.55 276.327 1318.55 197.643C1318.55 178.2 1262.67 177.066 1260.86 196.74C1260.86 204.652 1260.86 212.792 1260.63 220.705C1259.73 263.891 1239.14 344.608 1204.98 374.001C1195.71 381.917 1187.33 382.368 1181.46 378.07C1176.25 374.226 1174.89 364.507 1174.89 356.14V345.288C1174.89 296.677 1175.12 246.481 1174.89 197.868C1174.89 178.423 1119.01 177.066 1117.2 196.74C1117.2 241.958 1117.2 285.824 1117.43 330.591C1080.56 389.377 995.271 416.962 959.98 347.321C981.925 355.688 1005.22 351.617 1021.06 343.252C1048.44 328.781 1069.25 304.816 1073.32 266.831C1077.16 155.587 930.122 140.442 897.315 253.718C891.888 272.483 888.948 292.606 889.628 312.276C890.302 331.042 894.149 348.451 900.71 363.828C888.717 375.584 874.92 383.723 861.123 383.273C843.02 382.593 844.836 360.211 844.836 347.321V262.533C844.836 252.36 844.836 242.185 843.927 232.239C840.99 202.619 818.364 179.103 786.695 177.066C741.672 176.39 710.003 218.219 694.394 264.118C694.171 238.569 694.394 223.418 694.394 197.643C694.171 178.423 642.365 177.066 636.483 197.416C629.017 223.193 604.583 243.315 581.733 255.297C574.724 238.341 565.903 222.742 553.686 209.403C503.46 154.909 430.847 164.861 388.312 209.852C354.605 245.578 344.43 310.016 362.525 355.233C349.179 371.064 330.857 383.95 314.568 383.273C306.42 382.82 301.897 378.07 299.86 370.61C297.822 363.373 298.279 354.785 298.279 347.321C298.279 319.058 298.05 290.796 298.279 262.533C298.279 252.36 298.279 242.185 297.376 232.239C294.431 202.619 277.012 178.876 243.986 176.844C187.201 174.353 164.353 229.299 147.608 274.517V177.973C159.601 175.937 171.141 172.997 182.674 169.608C307.778 133.656 283.571 2.29113 190.37 0.0323427C127.479 -1.32331 90.1492 40.0509 90.6056 102.906V143.604C67.9814 140.215 51.0128 110.822 41.5155 91.8294C40.1542 88.8889 38.7966 85.9485 37.4429 83.0081C36.3125 80.0695 33.1448 78.4905 30.1987 79.3936C27.7146 80.0695 25.2267 80.9765 22.7349 81.8796C13.6902 85.9504 6.21884 92.9597 2.60439 102.23C-3.95432 118.734 2.60439 136.371 14.137 148.805C33.1448 168.703 63.46 175.937 90.1492 177.293C89.922 255.751 90.1492 333.982 90.1492 412.438C91.0543 423.518 106.215 426.459 115.036 426.682C124.314 426.91 144.444 423.969 144.673 411.31L145.351 401.585C149.197 366.768 182.674 227.489 224.978 227.261C235.388 227.261 240.593 234.045 240.593 244.22V368.351C240.593 406.787 262.308 432.561 301.672 432.561C332.212 432.788 359.807 410.628 376.323 383.047C378.583 385.986 380.395 389.15 382.883 391.863C404.373 416.962 436.046 433.016 472.244 433.241C551.191 432.109 591.685 364.28 588.75 297.58C607.073 287.407 623.589 274.289 636.252 258.01V412.438C637.159 423.518 652.997 426.459 661.822 426.682C671.092 426.91 691.23 423.969 691.23 411.31L692.133 401.585L694.845 375.811C698.921 339.861 725.841 227.489 771.764 227.261C781.939 227.261 787.15 234.045 787.15 244.22V368.351C787.15 406.787 808.867 432.561 848.45 432.561C875.827 432.788 900.71 414.926 917.451 391.412C939.619 418.77 973.558 434.822 1014.27 434.822C1062.01 434.822 1096.62 413.796 1119.69 379.88C1124.9 409.049 1140.51 432.109 1178.74 432.561C1218.32 432.788 1248.42 377.621 1260.86 344.381V433.241C1249.09 435.274 1237.56 438.215 1226.02 441.604C1100.92 477.33 1124.9 608.919 1218.1 610.956C1281.22 612.539 1318.32 571.161 1318.09 508.306C1318.09 497.68 1317.87 477.783 1318.09 467.381C1340.49 470.774 1357.68 500.394 1366.96 519.386C1368.54 522.325 1369.9 525.261 1371.03 528.202C1372.39 531.142 1375.32 532.498 1378.49 531.818C1380.98 531.142 1383.47 530.239 1385.73 529.105C1395.01 525.038 1402.48 518.256 1406.09 508.759C1412.66 492.254 1406.09 474.844 1394.33 462.407C1375.56 442.286 1345.01 435.274 1318.55 433.692Z" />
  </symbol>
  <!-- Логотипы Доверенных магазинов -->
  <symbol viewBox="0 0 145 34" id="logo-luxottica">
    <path fill-rule="evenodd" clip-rule="evenodd"
      d="M61.7805 0.772095C52.862 0.772095 45.6319 8.00219 45.6319 16.9208C45.6319 25.8393 52.862 33.0694 61.7805 33.0694C70.6991 33.0694 77.9292 25.8393 77.9292 16.9208C77.9725 8.00219 70.7424 0.772095 61.7805 0.772095ZM61.7805 27.1814C56.109 27.1814 51.5199 22.5923 51.5199 16.9208C51.5199 11.2492 56.109 6.66008 61.7805 6.66008C67.452 6.66008 72.0412 11.2492 72.0412 16.9208C72.0412 22.5923 67.452 27.1814 61.7805 27.1814ZM103.04 6.66008H97.5847V30.0388C97.5847 31.684 96.2858 32.9828 94.6407 32.9828C92.9955 32.9828 91.6967 31.684 91.6967 30.0388V6.66008H87.4539V30.0388C87.4539 31.684 86.155 32.9828 84.5099 32.9828C82.8647 32.9828 81.5659 31.684 81.5659 30.0388V6.66008H76.6737C75.0285 6.66008 73.7297 5.36126 73.7297 3.71609C73.7297 2.07092 75.0285 0.772095 76.6737 0.772095H102.996C104.642 0.772095 105.94 2.07092 105.94 3.71609C105.984 5.31797 104.642 6.66008 103.04 6.66008ZM144.299 3.71609V30.0388C144.299 31.684 143 32.9828 141.355 32.9828C139.71 32.9828 138.411 31.684 138.411 30.0388V12.9377V13.1542L125.769 31.2944C124.86 32.6365 123.128 33.0694 122.176 33.1127C114.036 33.1127 107.326 27.0948 106.2 19.3019V30.0388C106.2 31.684 104.901 32.9828 103.256 32.9828C101.611 32.9828 100.312 31.684 100.312 30.0388V11.9852C100.312 10.3401 101.611 9.04125 103.256 9.04125C104.901 9.04125 106.2 10.3401 106.2 11.9852V14.5829C107.326 6.74666 114.036 0.772095 122.176 0.772095C125.033 0.772095 127.761 1.55139 130.098 2.85021C130.878 3.36974 131.441 4.27891 131.441 5.31796C131.441 6.96314 130.142 8.26196 128.497 8.26196C127.934 8.26196 127.458 8.13207 127.025 7.87231C125.596 7.09301 123.994 6.70337 122.219 6.70337C116.547 6.70337 111.958 11.2925 111.958 16.964C111.958 22.3325 116.114 26.7485 121.396 27.1814L138.671 2.59044C139.147 1.55139 140.143 0.815388 141.355 0.815388C143 0.772094 144.299 2.07092 144.299 3.71609ZM48.6624 28.1772C49.7015 29.4327 49.485 31.2944 48.2295 32.3334C46.974 33.3725 45.1123 33.156 44.0733 31.9005L35.5877 21.38L27.102 31.9005C26.063 33.156 24.2446 33.3725 22.9458 32.3334C21.6903 31.2944 21.4738 29.476 22.5129 28.1772L31.8211 16.7043L28.0545 12.0718V14.7561C28.0545 20.341 23.5519 24.8436 17.967 24.8436C12.3821 24.8436 7.87951 20.341 7.87951 14.7561V3.71609C7.87951 2.07092 9.17833 0.772095 10.8235 0.772095C12.4687 0.772095 13.7675 2.07092 13.7675 3.71609V14.7561C13.7675 17.0939 15.6291 18.9556 17.967 18.9556C20.3049 18.9556 22.1665 17.0506 22.1665 14.7561V3.71609C22.1665 2.07092 23.4653 0.772095 25.1105 0.772095C26.1496 0.772095 27.0587 1.33492 27.5783 2.1575L35.5877 12.0285L43.7702 1.94103C44.8093 0.685505 46.6276 0.469035 47.9264 1.50809C49.182 2.54715 49.3984 4.3655 48.3594 5.66432L39.3975 16.7476L48.6624 28.1772ZM20.911 29.9522C20.911 31.5974 19.6122 32.8962 17.967 32.8962H3.5934C3.37693 32.9395 3.16046 32.9828 2.94399 32.9828C1.29882 32.9828 0 31.684 0 30.0388V3.71609C0 2.07092 1.29882 0.772095 2.94399 0.772095C4.58916 0.772095 5.88798 2.07092 5.88798 3.71609V27.0083H17.967C19.6122 27.0083 20.911 28.3071 20.911 29.9522Z" />
  </symbol>
  <symbol viewBox="0 0 228 38" id="logo-miumiu">
    <path
      d="M50.5912 14.7452V34.1935C50.5912 35.6553 49.2565 36.7358 47.9854 36.7358H41.2483C39.9136 36.7358 38.8332 35.6553 38.8332 34.1935V14.9358C38.2612 11.5038 36.2274 10.7411 33.8122 10.9318C33.0495 8.77082 32.2868 6.92769 31.0157 5.1481C28.4099 2.60583 28.7912 3.49563 28.0285 2.60583C28.2192 2.60583 29.5539 1.52536 31.397 0.953351C32.8588 0.572011 35.6553 0.381337 37.562 0.572007C42.583 1.27113 44.2991 2.54226 45.7609 3.68628L47.2862 5.1481C50.7818 8.89795 50.5912 13.2834 50.5912 14.7452ZM65.1457 1.4618H58.5993C57.074 1.4618 55.9935 2.54226 55.9935 4.00407V34.13C55.9935 35.5918 57.1375 36.6722 58.5993 36.6722H65.1457C66.671 36.6722 67.7515 35.5918 67.7515 34.13V4.00407C67.7515 2.54226 66.6075 1.4618 65.1457 1.4618ZM102.39 1.4618H95.6529C94.1276 1.4618 93.0471 2.54226 93.0471 4.00407V24.7236C93.0471 27.0752 90.4413 27.4565 90.4413 27.4565V37.6256H94.0004C95.4622 37.4349 97.7503 37.0536 99.5935 35.7824C101.055 34.702 102.581 33.0495 103.725 31.2064C104.487 29.9352 104.678 28.8548 104.869 27.393V3.94051C104.805 2.54226 103.725 1.4618 102.39 1.4618ZM85.1025 25.1049V22.1813L84.9118 4.38541C84.9118 2.92361 83.7678 1.84314 82.4967 1.84314H75.7597C74.2979 1.84314 73.1538 2.92361 73.1538 4.38541V27.8379C73.3445 29.2997 73.5352 30.3801 74.425 31.6513C75.569 33.3037 76.8401 35.0833 78.5562 36.0367C80.3993 37.3078 82.4967 37.8798 83.9585 37.8798H87.5177V27.7108C87.5177 27.6472 85.1025 27.2659 85.1025 25.1049ZM16.0799 0.572007H15.3172C6.92769 0.572007 0.190672 7.30902 0.190672 15.1265L0 34.1935C0 35.6553 1.14403 36.7358 2.60583 36.7358H8.77083C10.2326 36.7358 11.3767 35.6553 11.3767 34.1935V14.9358C11.758 13.474 13.9825 11.6309 15.8256 11.6309C17.4781 11.6309 19.5755 13.474 20.1475 14.9358V34.0029C20.1475 35.4647 21.2915 36.5451 22.5627 36.5451H28.9183C30.253 36.5451 31.3335 35.4647 31.3335 34.0029L31.5242 15.4443C31.5877 7.43613 24.66 0.572007 16.0799 0.572007ZM170.459 4.76676L169.125 3.30494C167.663 2.22447 165.947 0.953355 160.735 0.0635606C159.083 -0.12711 156.286 0.254227 154.761 0.635568C152.918 1.20758 151.392 2.28805 151.202 2.28805C152.155 3.17784 151.583 2.28805 154.189 4.83032C155.651 6.67346 156.413 8.45304 156.985 10.614C159.591 10.4233 161.434 11.186 162.006 14.6181V33.8757C162.006 35.3376 163.277 36.418 164.612 36.418H171.349C172.684 36.418 173.764 35.3376 173.764 33.8757L173.955 14.4274C174.018 12.902 174.146 8.58016 170.459 4.76676ZM188.509 1.14401H181.772C180.438 1.14401 179.357 2.22448 179.357 3.68628V33.8122C179.357 35.274 180.501 36.3545 181.772 36.3545H188.509C189.844 36.3545 190.924 35.274 190.924 33.8122V3.68628C190.924 2.22448 189.844 1.14401 188.509 1.14401ZM225.626 1.14401H218.889C217.618 1.14401 216.474 2.22448 216.474 3.68628V21.6729C216.474 21.8635 216.474 22.7533 216.284 24.4058C216.284 26.7574 213.868 27.1387 213.868 27.1387V37.3078H217.428C218.889 37.1171 220.987 36.6087 222.83 35.4647C224.482 34.3842 226.008 32.7317 227.088 30.9521C227.851 29.681 228.042 28.6005 228.232 27.1387V3.68628C228.232 2.22448 227.088 1.14401 225.626 1.14401ZM208.276 24.7236V3.81341C208.276 2.54227 207.131 1.4618 205.67 1.4618H199.123C197.598 1.4618 196.518 2.54227 196.518 3.81341V27.4565C196.708 28.9183 196.899 29.9988 197.662 31.0793C198.806 32.9224 200.267 34.702 201.92 35.5918C203.763 36.8629 205.86 37.4349 207.322 37.4349H210.881V27.2658C210.881 27.2658 208.466 26.8845 208.276 24.7236ZM139.507 0L138.744 0.190663C130.164 0.190663 123.491 6.92768 123.491 14.7452V33.8122C123.491 35.274 124.635 36.3545 126.097 36.3545H132.262C133.723 36.3545 134.867 35.274 134.867 33.8122L134.677 14.9358L134.867 14.5545C135.249 13.0927 137.473 11.3131 139.126 11.3131C140.778 11.3131 143.066 12.9656 143.384 14.5545L143.575 14.7452L143.384 33.6215C143.384 35.0833 144.528 36.1638 145.99 36.1638H152.155C153.68 36.1638 154.761 35.0833 154.761 33.6215V14.9358C154.761 7.11836 148.087 0 139.507 0Z" />
  </symbol>
  <symbol viewBox="0 0 205 37" id="logo-dunkin">
    <path
      d="M103.971 5.15973C104.089 5.80661 104.089 6.45349 104.089 7.10036C104.089 15.0393 104.089 23.0371 104.089 30.9761C104.089 33.446 103.207 35.3866 100.913 36.3863C98.4432 37.4448 96.0909 37.0332 94.0914 35.2102C92.8565 34.0928 91.9156 32.6815 90.857 31.3289C88.0931 27.8005 85.0939 24.3897 82.7417 20.5084C82.8005 20.4496 82.7417 20.4496 82.6828 20.3908C82.5652 20.5672 82.624 20.8024 82.624 20.9788C82.624 24.0956 82.624 27.1536 82.624 30.2116C82.624 31.0937 82.5064 31.917 82.2712 32.7403C81.5067 35.3866 79.272 36.9744 76.5081 36.798C73.0973 36.5627 71.1566 34.5045 70.9214 30.9173C70.8626 30.5644 70.8626 30.2116 70.8626 29.8587C70.8626 21.9198 70.8626 13.9808 70.8626 6.04183C70.8626 3.57193 71.8035 1.6313 74.1558 0.631579C76.5669 -0.368143 78.8604 -0.0152998 80.8598 1.80772C81.9184 2.74864 82.6828 4.04239 83.5649 5.21854C86.2113 8.80577 89.034 12.3342 91.5039 16.0979C91.7391 16.5095 91.9744 16.8623 92.386 17.2152C92.386 17.0388 92.386 16.8035 92.386 16.6271C92.386 13.3339 92.386 10.0407 92.386 6.74753C92.386 5.39496 92.6213 4.04239 93.3269 2.86625C94.6207 0.690387 96.6201 -0.0152981 98.9724 0.21993C101.736 0.455159 103.618 2.33699 103.971 5.15973ZM189.829 4.1012C189.241 2.10176 187.948 0.690387 185.831 0.278737C183.596 -0.132913 181.538 0.161122 179.95 2.04295C178.891 3.33671 178.538 4.8657 178.538 6.45349C178.538 9.8055 178.538 13.2163 178.538 16.5683C178.538 16.8035 178.538 16.98 178.538 17.3916C178.127 16.6859 177.833 16.2155 177.48 15.6862C174.422 11.2169 171.129 6.98275 167.894 2.63102C167.483 2.10176 166.953 1.6313 166.365 1.21965C164.307 -0.132914 162.19 -0.250526 160.014 0.749196C158.074 1.69011 157.074 3.33671 157.074 5.45377C157.015 13.8044 157.074 22.2138 157.074 30.5644C157.074 30.7408 157.133 30.9761 157.133 31.1525C157.368 34.5045 159.367 36.6215 162.661 36.8568C164.954 37.0332 167.071 35.8571 168.071 33.8576C168.482 32.9755 168.776 32.0934 168.776 31.1525C168.776 27.7417 168.835 24.4485 168.835 21.0965C168.835 20.92 168.835 20.6848 168.835 20.4496C168.894 20.4496 168.894 20.4496 168.835 20.4496C169.188 21.0377 169.482 21.5669 169.894 22.0962C172.893 26.3891 176.304 30.3292 179.479 34.4457C179.715 34.7397 180.067 35.0926 180.362 35.3278C182.361 36.9744 184.654 37.2684 187.007 36.2687C189.3 35.269 190.182 33.3283 190.182 30.9173C190.182 22.9783 190.182 14.9805 190.182 6.98275C190.182 6.04184 190.123 5.04211 189.829 4.1012ZM31.8147 11.9225C34.1669 18.4501 33.4025 24.6837 28.7567 30.1528C25.934 33.5048 22.1115 35.269 17.8186 35.8571C13.8785 36.4451 9.8796 36.0335 5.88072 36.0923C5.70429 36.0923 5.46907 36.0335 5.29264 35.9747C2.17587 35.4454 0 32.8579 0 29.7411C0 22.2138 0 14.6865 0 7.21798C0 3.68955 2.70513 0.866809 6.29236 0.808002C7.88016 0.808002 9.46795 0.808002 11.291 0.808002C13.3492 0.866809 15.7015 0.63158 18.0538 1.10204C24.5226 2.33699 29.5212 5.57138 31.8147 11.9225ZM21.2882 18.509C21.347 15.2158 19.1711 12.6282 15.8779 12.2166C14.643 12.0402 13.4668 12.1578 12.2319 12.099C11.7614 12.0402 11.6438 12.2166 11.6438 12.687C11.7026 14.6277 11.7026 16.5683 11.7026 18.509C11.7026 20.4496 11.7026 22.3902 11.7026 24.3309C11.7026 24.6249 11.6438 24.8601 12.1143 24.8601C13.3492 24.8013 14.5842 24.9189 15.8191 24.7425C19.0535 24.3309 21.2294 21.9198 21.2882 18.509ZM129.435 18.7442C129.14 18.3913 129.14 18.2149 129.435 17.8621C131.493 15.5098 133.551 13.1575 135.55 10.7464C136.55 9.51145 137.197 8.1589 137.315 6.5711C137.55 3.10148 134.257 -0.0741062 130.787 0.278737C128.788 0.455158 127.376 1.5725 126.2 3.10148C124.142 5.80661 121.966 8.39412 119.849 11.0992C119.849 9.33504 119.908 7.57083 119.908 5.86542C119.79 2.45461 117.379 0.161125 114.086 0.102318C110.734 0.102318 108.264 2.45461 108.205 5.86542C108.146 14.2748 108.146 22.6843 108.205 31.0937C108.205 34.4457 110.675 36.8568 114.027 36.8568C117.32 36.9156 119.731 34.5045 119.849 31.0937C119.967 29.3883 119.908 27.7417 119.908 26.0363C119.908 25.8598 119.79 25.6834 120.025 25.5658C120.143 25.7422 120.202 25.8598 120.319 25.9775C122.554 28.859 124.906 31.6229 127.2 34.4457C128.023 35.4454 128.964 36.1511 130.199 36.5039C133.727 37.5625 137.609 34.5633 137.726 30.7408C137.785 28.9178 137.138 27.4476 135.962 26.0951C133.786 23.684 131.61 21.1553 129.435 18.7442ZM66.9225 15.0981C66.9225 11.7461 66.9225 8.9822 66.8637 6.15945C66.8637 5.63019 66.8637 5.15973 66.7461 4.68927C66.0992 1.69011 63.4529 -0.191718 60.3949 0.102318C57.2782 0.455161 55.1611 2.80745 55.1611 5.98303C55.1611 10.8052 55.1611 15.6862 55.1611 20.5084C55.1611 20.8612 55.1611 21.2141 55.1023 21.5669C54.8083 24.3309 52.1619 26.0363 49.7508 24.8013C48.2219 24.0368 47.6338 22.6843 47.6338 21.0377C47.6338 16.0979 47.6338 11.0993 47.6338 6.15945C47.6338 2.57222 45.2227 0.102314 41.8119 0.0435072C38.4011 0.0435072 35.99 2.51341 35.9312 6.04183C35.8724 11.2757 35.9312 16.5095 35.9312 21.8021C35.99 22.5666 35.99 23.2723 36.1076 23.978C36.9309 29.5059 39.8124 33.5048 45.0463 35.6218C47.9866 36.8568 51.0446 37.0332 54.1614 36.6215C61.2182 35.7394 66.4521 30.1528 66.8637 23.0959C67.0401 20.2732 66.8637 17.3916 66.9225 15.0981ZM151.193 1.5725C149.253 -0.132911 147.018 -0.426949 144.666 0.572772C142.431 1.57249 141.431 3.45433 141.372 5.86542C141.314 10.0407 141.372 14.216 141.372 18.3913C141.372 22.6843 141.372 26.8596 141.314 31.0937C141.314 34.3869 143.725 36.6804 147.077 36.798C150.252 36.9156 152.899 34.5045 152.957 31.2701C153.016 22.6843 153.016 14.0984 152.957 5.51257C152.957 3.98359 152.369 2.57222 151.193 1.5725Z" />
    <path
      d="M193.828 8.57051C193.77 7.15914 193.828 5.74777 194.122 4.3364C194.769 1.39604 197.239 -0.25056 200.238 0.219897C203.12 0.690354 205.002 3.04264 204.708 5.983C204.473 8.39409 203.767 10.7464 202.826 12.981C202.238 14.2748 201.415 15.3333 200.003 15.8038C197.71 16.5683 195.299 15.4509 194.475 13.1575C193.887 11.6873 193.828 10.0995 193.828 8.57051Z" />
  </symbol>
  <symbol viewBox="0 0 263 35" id="logo-burberry">
    <path
      d="M95.6193 11.322C95.6193 5.55061 90.9167 0.848022 85.1454 0.848022H67.6888V35.0487H75.4552V21.7959H81.6541L89.2067 35.0487H97.8281L89.6342 20.7271C93.3393 19.0171 95.6193 15.312 95.6193 11.322ZM83.5778 15.1695H75.3839V7.47439H83.7203C86.2854 7.6169 87.9242 9.11318 87.9242 11.322C87.8529 13.5308 86.1429 15.0983 83.5778 15.1695ZM54.0085 0.919273H61.9887V21.5109C61.9887 30.4886 56.4311 35.9037 47.0971 35.9037C37.7632 35.9037 32.2056 30.5598 32.2056 21.5109V0.919273H40.1858V21.0122C40.1858 25.8572 42.7508 28.636 47.0971 28.636C51.5147 28.636 54.0798 25.8572 54.0798 21.0122V0.919273H54.0085ZM142.289 28.2085H160.743V35.0487H134.38V0.848022H159.888V7.40315H142.36V14.2433H157.751V20.9409H142.36V28.2085H142.289ZM21.6604 16.0958C24.083 14.5995 25.5792 11.9632 25.5792 9.11318C25.5792 4.62434 21.9454 0.919274 17.3853 0.848022H0V35.0487H18.8816C24.2255 35.0487 28.5005 30.7023 28.5005 25.3585C28.5005 21.5822 26.2917 17.6633 21.6604 16.0958ZM7.83765 7.26064H14.2503C16.1741 7.26064 17.8128 8.89942 17.8128 10.8232C17.8128 12.8182 16.2453 14.3858 14.2503 14.3858H7.83765V7.26064ZM16.6016 28.636H7.83765V20.6559H16.5303C19.3804 20.6559 20.7341 22.9359 20.7341 24.5747C20.7341 26.641 19.3091 28.636 16.6016 28.636ZM193.946 11.322C193.946 5.55061 189.244 0.848022 183.472 0.848022H166.016V35.0487H173.782V21.7959H179.981L187.534 35.0487H196.155L187.961 20.7271C191.595 19.0171 193.946 15.312 193.946 11.322ZM181.833 15.1695H173.64V7.47439H181.976C184.541 7.6169 186.18 9.11318 186.18 11.322C186.18 13.5308 184.398 15.0983 181.833 15.1695ZM123.194 16.0958C125.616 14.5995 127.112 11.9632 127.112 9.11318C127.112 4.62434 123.479 0.919274 118.919 0.848022H101.533V35.0487H120.415C125.759 35.0487 130.034 30.7023 130.034 25.3585C130.034 21.5822 127.754 17.6633 123.194 16.0958ZM109.371 7.26064H115.783C117.707 7.26064 119.346 8.89942 119.346 10.8232C119.346 12.8182 117.778 14.3858 115.783 14.3858H109.371V7.26064ZM118.063 28.636H109.371V20.6559H118.063C120.914 20.6559 122.267 22.9359 122.267 24.5747C122.267 26.641 120.842 28.636 118.063 28.636ZM263.345 0.848022L249.736 21.0834V34.9774H241.328V21.0834L227.791 0.848022H237.766L245.603 12.6045L253.441 0.848022H263.345ZM227.719 11.322C227.719 5.55061 223.017 0.848022 217.245 0.848022H199.789V35.0487H207.555V21.7959H213.754L221.307 35.0487H229.999L221.805 20.7271C225.439 19.0171 227.719 15.312 227.719 11.322ZM215.607 15.1695H207.413V7.47439H215.749C218.314 7.6169 219.953 9.11318 219.953 11.322C219.953 13.5308 218.243 15.0983 215.607 15.1695Z" />
  </symbol>
  <!-- Социальные сети -->
  <symbol viewBox="0 0 24 24" id="icon-facebook">
    <path fill-rule="evenodd" clip-rule="evenodd"
      d="M16.403,9H14V7c0-1.032,0.084-1.682,1.563-1.682h0.868c0.552,0,1-0.448,1-1V3.064c0-0.523-0.401-0.97-0.923-1.005 C15.904,2.018,15.299,1.999,14.693,2C11.98,2,10,3.657,10,6.699V9H8c-0.552,0-1,0.448-1,1v2c0,0.552,0.448,1,1,1l2-0.001V21 c0,0.552,0.448,1,1,1h2c0.552,0,1-0.448,1-1v-8.003l2.174-0.001c0.508,0,0.935-0.381,0.993-0.886l0.229-1.996 C17.465,9.521,17.001,9,16.403,9z" />
  </symbol>
  <symbol viewBox="0 0 30 30" id="icon-twitter">
    <path fill-rule="evenodd" clip-rule="evenodd"
      d="M28,6.937c-0.957,0.425-1.985,0.711-3.064,0.84c1.102-0.66,1.947-1.705,2.345-2.951c-1.03,0.611-2.172,1.055-3.388,1.295 c-0.973-1.037-2.359-1.685-3.893-1.685c-2.946,0-5.334,2.389-5.334,5.334c0,0.418,0.048,0.826,0.138,1.215 c-4.433-0.222-8.363-2.346-10.995-5.574C3.351,6.199,3.088,7.115,3.088,8.094c0,1.85,0.941,3.483,2.372,4.439 c-0.874-0.028-1.697-0.268-2.416-0.667c0,0.023,0,0.044,0,0.067c0,2.585,1.838,4.741,4.279,5.23 c-0.447,0.122-0.919,0.187-1.406,0.187c-0.343,0-0.678-0.034-1.003-0.095c0.679,2.119,2.649,3.662,4.983,3.705 c-1.825,1.431-4.125,2.284-6.625,2.284c-0.43,0-0.855-0.025-1.273-0.075c2.361,1.513,5.164,2.396,8.177,2.396 c9.812,0,15.176-8.128,15.176-15.177c0-0.231-0.005-0.461-0.015-0.69C26.38,8.945,27.285,8.006,28,6.937z" />
  </symbol>
  <symbol viewBox="0 0 50 50" id="icon-google">
    <path
      d="M 17.1875 10.9375 C 9.421875 10.9375 3.125 17.234375 3.125 25 C 3.125 32.765625 9.421875 39.0625 17.1875 39.0625 C 24.953125 39.0625 31.25 32.765625 31.25 25 C 31.25 24.035156 31.144531 23.09375 30.960938 22.1875 L 30.882813 21.875 L 17.1875 21.875 L 17.1875 26.5625 L 26.5625 26.5625 C 25.816406 30.996094 21.832031 34.375 17.1875 34.375 C 12.007813 34.375 7.8125 30.179688 7.8125 25 C 7.8125 19.820313 12.007813 15.625 17.1875 15.625 C 19.53125 15.625 21.667969 16.492188 23.3125 17.914063 L 26.671875 14.625 C 24.171875 12.335938 20.84375 10.9375 17.1875 10.9375 Z M 39.0625 17.1875 L 39.0625 21.875 L 34.375 21.875 L 34.375 25 L 39.0625 25 L 39.0625 29.6875 L 42.1875 29.6875 L 42.1875 25 L 46.875 25 L 46.875 21.875 L 42.1875 21.875 L 42.1875 17.1875 Z" />
  </symbol>
  <symbol viewBox="0 0 25 25" id="icon-pinterest">
    <path fill-rule="evenodd" clip-rule="evenodd"
      d="M 16.09375 4 C 11.01675 4 6 7.3833281 6 12.861328 C 6 16.344328 7.9584844 18.324219 9.1464844 18.324219 C 9.6364844 18.324219 9.9199219 16.958266 9.9199219 16.572266 C 9.9199219 16.112266 8.7460938 15.131797 8.7460938 13.216797 C 8.7460938 9.2387969 11.774359 6.4199219 15.693359 6.4199219 C 19.063359 6.4199219 21.556641 8.3335625 21.556641 11.851562 C 21.556641 14.478563 20.501891 19.40625 17.087891 19.40625 C 15.855891 19.40625 14.802734 18.516234 14.802734 17.240234 C 14.802734 15.370234 16 13.558906 16 11.628906 C 16 8.3529063 11.462891 8.94725 11.462891 12.90625 C 11.462891 13.73725 11.5665 14.657063 11.9375 15.414062 C 11.2555 18.353063 10 23.037406 10 26.066406 C 10 27.001406 10.133656 27.921422 10.222656 28.857422 C 10.390656 29.045422 10.307453 29.025641 10.564453 28.931641 C 13.058453 25.517641 12.827078 24.544172 13.955078 20.076172 C 14.564078 21.234172 16.137766 21.857422 17.384766 21.857422 C 22.639766 21.857422 25 16.736141 25 12.119141 C 25 7.2061406 20.75475 4 16.09375 4 z" />
  </symbol>
  <!-- Кнопки мобильных приложений -->
  <symbol viewBox="0 0 140 42" id="icon-googleplay">
    <path
      d="M134.017 41.2715H5.25168C2.41888 41.2715 0.101074 38.9499 0.101074 36.1125V5.15895C0.101074 2.32152 2.41883 0 5.25168 0H134.017C136.85 0 139.167 2.32152 139.167 5.15895V36.1125C139.167 38.9499 136.85 41.2715 134.017 41.2715"
      fill="black" />
    <path
      d="M134.017 0H5.25168C2.41888 0 0.101074 2.32152 0.101074 5.15895V36.1125C0.101074 38.9499 2.41883 41.2715 5.25168 41.2715H134.017C136.85 41.2715 139.167 38.9499 139.167 36.1125V5.15895C139.167 2.32152 136.85 0 134.017 0H134.017ZM134.017 0.825403C136.402 0.825403 138.343 2.76974 138.343 5.15895V36.1125C138.343 38.5022 136.402 40.4465 134.017 40.4465H5.25168C2.86636 40.4465 0.925179 38.5021 0.925179 36.1125V5.15895C0.925179 2.76974 2.86631 0.825449 5.25168 0.825449H134.017"
      fill="#A6A6A6" />
    <path
      d="M48.9477 10.5689C48.9477 11.4334 48.6921 12.1218 48.1802 12.6353C47.5988 13.2459 46.841 13.5514 45.9095 13.5514C45.0174 13.5514 44.2589 13.2419 43.6352 12.622C43.0103 12.0025 42.6985 11.2343 42.6985 10.3178C42.6985 9.40085 43.0103 8.63313 43.6352 8.01315C44.2589 7.39373 45.0174 7.08374 45.9095 7.08374C46.3521 7.08374 46.7759 7.17045 47.1783 7.34337C47.5807 7.51671 47.9034 7.7468 48.1448 8.03495L47.6016 8.57943C47.1924 8.08976 46.629 7.8451 45.9095 7.8451C45.2589 7.8451 44.6963 8.07408 44.2215 8.53232C43.7467 8.99102 43.5093 9.58587 43.5093 10.3178C43.5093 11.0498 43.7467 11.6446 44.2215 12.1033C44.6963 12.5615 45.2589 12.7905 45.9095 12.7905C46.5997 12.7905 47.1751 12.5603 47.6358 12.0993C47.9348 11.7989 48.1078 11.3814 48.154 10.8454H45.9094V10.1017H48.9045C48.9335 10.2634 48.9476 10.4186 48.9476 10.5689"
      fill="white" />
    <path
      d="M48.9476 10.5691H48.8446C48.8438 11.4138 48.5974 12.0699 48.1073 12.5625L48.1062 12.5633L48.1058 12.5641C47.5428 13.1537 46.8192 13.4471 45.9094 13.4484C45.0412 13.4471 44.3144 13.1505 43.7075 12.5492C43.102 11.9466 42.8026 11.211 42.8015 10.3179C42.8026 9.42442 43.102 8.68925 43.7075 8.08713C44.3144 7.48537 45.0412 7.18832 45.9094 7.18706C46.3388 7.18706 46.7477 7.271 47.1376 7.43821C47.5279 7.60672 47.8362 7.82754 48.0659 8.10169L48.1448 8.0351L48.072 7.96216L47.5287 8.50701L47.6015 8.57958L47.6808 8.51355C47.2526 7.99962 46.6515 7.74055 45.9095 7.74208C45.2347 7.74124 44.6412 7.98274 44.1502 8.45837C43.6545 8.93553 43.4054 9.56385 43.4063 10.3179C43.4054 11.0721 43.6545 11.7003 44.1502 12.1776C44.6412 12.6532 45.2347 12.8946 45.9094 12.8938C46.6225 12.8951 47.2302 12.6528 47.7086 12.1724C48.0281 11.8515 48.2092 11.407 48.2567 10.8544L48.2663 10.7423H46.0125V10.2051H48.9045V10.1019L48.8031 10.12C48.8313 10.2765 48.8446 10.4251 48.8446 10.5691H49.0506C49.0506 10.4123 49.0361 10.2511 49.0059 10.0834L48.9906 9.99872H45.8065V10.9487H48.154V10.8455L48.0514 10.8366C48.006 11.3558 47.841 11.7468 47.5629 12.0265C47.1203 12.4682 46.5771 12.6862 45.9095 12.6874C45.283 12.6866 44.7514 12.4706 44.2931 12.0293C43.8392 11.5895 43.6135 11.0281 43.6123 10.3179C43.6135 9.60777 43.8392 9.04636 44.2931 8.60662C44.7514 8.16531 45.2829 7.94926 45.9095 7.94843C46.6061 7.9501 47.132 8.18061 47.5228 8.64613L47.5952 8.73238L48.2177 8.10808L48.2844 8.04122L48.2237 7.96897C47.9706 7.66677 47.6334 7.4269 47.2189 7.24883C46.8036 7.07021 46.3654 6.98071 45.9095 6.98071C44.9937 6.97993 44.2034 7.30234 43.5624 7.94041C42.919 8.57722 42.5946 9.37768 42.5955 10.3179C42.5946 11.2578 42.919 12.0587 43.5628 12.6959C44.2034 13.3335 44.9937 13.6556 45.9095 13.6547C46.8632 13.6556 47.6543 13.3383 48.2547 12.7067L48.1802 12.6354L48.253 12.7084C48.7866 12.1744 49.0513 11.4529 49.0506 10.5691H48.9476H48.9476ZM53.6958 7.98312H50.881V9.946H53.4194V10.6899H50.881V12.6528H53.6958V13.4133H50.0875V7.22259H53.6958V7.98312Z"
      fill="white" />
    <path
      d="M53.6955 7.98309V7.87991H50.7778V10.0491H53.3161V10.5864L50.7777 10.5867V12.7559H53.5924V13.3101H50.1903V7.32574H53.5924V7.98309H53.6955V7.87991V7.98309H53.7985V7.11938H49.9843V13.5164H53.7985V12.5496H50.9837V10.793H53.5221V9.8428H50.9837V8.08627H53.7985V7.98309H53.6955ZM57.0446 13.4133H56.2499V7.98304H54.5236V7.22251H58.7709V7.98304H57.0446V13.4132"
      fill="white" />
    <path
      d="M57.0448 13.4133V13.3101H56.3531V7.87991H54.6269V7.32578H58.6681V7.87991H56.9418V13.4133H57.0448V13.3101V13.4133H57.1479V8.08627H58.8741V7.11938H54.4208V8.08622H56.1471V13.5164H57.1479V13.4132H57.0448V13.4133ZM61.8442 13.4133V7.22251H62.6381V13.4132H61.8442"
      fill="white" />
    <path
      d="M61.8443 13.4133H61.9474V7.32574H62.5352V13.3101H61.8443V13.4133H61.9474H61.8443V13.5164H62.7412V7.11938H61.7413V13.5164H61.8443V13.4133V13.4133ZM66.1611 13.4133H65.3664V7.98304H63.6402V7.22251H67.8874V7.98304H66.1611V13.4132"
      fill="white" />
    <path
      d="M66.1611 13.4132V13.31H65.4694V7.87979H63.7432V7.32566H67.7843V7.87979H66.0581V13.4131H66.1611V13.31V13.4131H66.2641V8.08614H67.9904V7.11926H63.5372V8.08609H65.2633V13.5163H66.2641V13.4131H66.1611V13.4132ZM71.9821 12.0949C72.4396 12.5587 72.9993 12.7904 73.6613 12.7904C74.3232 12.7904 74.8833 12.5587 75.3401 12.0949C75.798 11.631 76.0274 11.038 76.0274 10.3178C76.0274 9.59765 75.798 9.00466 75.3401 8.54076C74.8833 8.07687 74.3232 7.8451 73.6613 7.8451C72.9993 7.8451 72.4396 8.07687 71.9821 8.54076C71.5254 9.00466 71.2961 9.5976 71.2961 10.3178C71.2961 11.038 71.5254 11.631 71.9821 12.0949ZM75.9275 12.6131C75.3199 13.239 74.5642 13.5514 73.6613 13.5514C72.7575 13.5514 72.0021 13.239 71.3958 12.6131C70.7878 11.9879 70.4852 11.2227 70.4852 10.3178C70.4852 9.41291 70.7878 8.64751 71.3958 8.02247C72.0022 7.39647 72.7575 7.08374 73.6613 7.08374C74.5595 7.08374 75.3131 7.39814 75.9235 8.02651C76.5331 8.65483 76.8382 9.41856 76.8382 10.3178C76.8382 11.2227 76.5339 11.9879 75.9275 12.6131Z"
      fill="white" />
    <path
      d="M71.9822 12.095L71.9089 12.1675C72.3834 12.65 72.9753 12.8951 73.6613 12.8938C74.347 12.8951 74.9397 12.65 75.4134 12.1675C75.8909 11.6846 76.1311 11.0599 76.1304 10.3179C76.1311 9.57601 75.8909 8.95125 75.4134 8.46834C74.9397 7.9859 74.347 7.74087 73.6613 7.74208C72.9753 7.74087 72.3834 7.9859 71.9089 8.46834C71.4325 8.95125 71.1918 9.57601 71.1931 10.3179C71.1918 11.0599 71.4325 11.6846 71.9089 12.1675L71.9822 12.095L72.0554 12.0224C71.6184 11.5771 71.3999 11.0168 71.3991 10.3179C71.3999 9.61913 71.6184 9.05888 72.0554 8.61344C72.4964 8.16814 73.0231 7.94968 73.6613 7.94848C74.2991 7.94968 74.827 8.16814 75.2669 8.61344C75.7047 9.05888 75.9232 9.61913 75.924 10.3179C75.9232 11.0168 75.7047 11.5771 75.2669 12.0224C74.827 12.4678 74.2991 12.6862 73.6613 12.6874C73.0231 12.6862 72.4964 12.4678 72.0554 12.0224L71.9822 12.095ZM75.9276 12.6133L75.8539 12.5416C75.2633 13.1477 74.541 13.4472 73.6613 13.4484C72.7813 13.4471 72.059 13.1477 71.4694 12.5416L71.4667 12.5383L71.4694 12.5416C70.88 11.9333 70.5891 11.1998 70.5883 10.3179C70.5891 9.43606 70.88 8.70256 71.4694 8.09436C72.059 7.48815 72.7813 7.18832 73.6613 7.18711C74.5353 7.18832 75.2559 7.4894 75.8499 8.09877C76.4414 8.7098 76.734 9.44213 76.7352 10.3179C76.734 11.1998 76.4423 11.9333 75.8539 12.5416L75.9276 12.6133L76.0017 12.6849C76.6261 12.0426 76.9419 11.2457 76.9413 10.3179C76.942 9.39544 76.6249 8.60022 75.9976 7.95497C75.3699 7.30717 74.5836 6.9796 73.6613 6.98072C72.7342 6.9796 71.9456 7.30564 71.3218 7.95094V7.95047C70.6961 8.59331 70.3814 9.39015 70.3823 10.3179C70.3814 11.2457 70.6961 12.0426 71.3218 12.6854L71.3246 12.6883L71.3218 12.6849C71.9456 13.3302 72.7342 13.6556 73.6613 13.6547C74.588 13.6556 75.3767 13.3302 76.0017 12.6849L75.9276 12.6133ZM77.9528 13.4133V7.22254H78.9194L81.9232 12.0385H81.9574L81.9232 10.8455V7.22254H82.718V13.4132H81.889L78.7463 8.36391H78.7121L78.7463 9.55736V13.4132H77.9528"
      fill="white" />
    <path
      d="M77.9527 13.4133H78.0557V7.32574H78.8621L81.8659 12.1417H82.0631L82.0261 10.8439V7.32578H82.6148V13.3101H81.946L78.8034 8.26076H78.6062L78.6432 9.55905V13.3101H77.9527V13.4133H78.0557H77.9527V13.5164H78.8492V9.55576L78.815 8.36115L78.712 8.36394V8.46711H78.7462V8.36394L78.6588 8.41879L81.8317 13.5164H82.8208V7.11938H81.8201V10.8467L81.8543 12.0413L81.9573 12.0385V11.9353H81.9231V12.0385L82.0104 11.9837L78.9763 7.11938H77.8497V13.5164H77.9528V13.4133L77.9527 13.4133ZM110.258 30.9536H112.18V18.0551H110.258L110.258 30.9536ZM127.571 22.7015L125.368 28.2936H125.302L123.015 22.7014H120.944L124.374 30.5175L122.418 34.8652H124.424L129.709 22.7014L127.571 22.7015ZM116.67 29.4886C116.04 29.4886 115.162 29.1734 115.162 28.3932C115.162 27.3976 116.256 27.016 117.2 27.016C118.046 27.016 118.442 27.1985 118.956 27.4477C118.807 28.6422 117.78 29.4886 116.67 29.4886ZM116.902 22.4193C115.51 22.4193 114.069 23.0334 113.473 24.3942L115.179 25.1076C115.543 24.3942 116.222 24.1616 116.935 24.1616C117.929 24.1616 118.94 24.7593 118.956 25.8213V25.954C118.608 25.7548 117.863 25.4562 116.952 25.4562C115.113 25.4562 113.24 26.4682 113.24 28.3601C113.24 30.0859 114.748 31.1979 116.438 31.1979C117.73 31.1979 118.442 30.6171 118.89 29.9368H118.956V30.9323H120.811V25.9869C120.811 23.6973 119.106 22.4193 116.902 22.4193ZM105.023 24.2716H102.289V19.8503H105.023C106.46 19.8503 107.276 21.042 107.276 22.0609C107.276 23.0605 106.46 24.2716 105.023 24.2716ZM104.973 18.0551H100.368V30.9536H102.289V26.0668H104.973C107.104 26.0668 109.198 24.5219 109.198 22.0609C109.198 19.6 107.104 18.0551 104.973 18.0551ZM79.858 29.491C78.5301 29.491 77.4183 28.3774 77.4183 26.8479C77.4183 25.3023 78.5301 24.1717 79.858 24.1717C81.169 24.1717 82.1979 25.3022 82.1979 26.8479C82.1979 28.3774 81.169 29.491 79.858 29.491H79.858ZM82.0651 23.4237H81.9987C81.5674 22.9085 80.7372 22.4431 79.6919 22.4431C77.5012 22.4431 75.4933 24.3712 75.4933 26.8479C75.4933 29.3081 77.5011 31.2197 79.6919 31.2197C80.7372 31.2197 81.5674 30.7541 81.9987 30.2225H82.0651V30.8541C82.0651 32.5332 81.169 33.4308 79.7252 33.4308C78.547 33.4308 77.8167 32.5827 77.5177 31.8681L75.8418 32.5662C76.3231 33.7298 77.601 35.1594 79.7252 35.1594C81.9822 35.1594 83.8907 33.8293 83.8907 30.5881V22.7091H82.0651V23.4237ZM85.2183 30.9536H87.1433V18.0546H85.2183V30.9536ZM89.9813 26.6984C89.9314 25.0027 91.2923 24.1386 92.2714 24.1386C93.0353 24.1386 93.6822 24.5207 93.8975 25.0697L89.9813 26.6984ZM95.9557 25.2357C95.591 24.2547 94.4785 22.4431 92.2049 22.4431C89.948 22.4431 88.0728 24.2216 88.0728 26.8314C88.0728 29.2916 89.9314 31.2197 92.4206 31.2197C94.4291 31.2197 95.591 29.9895 96.0721 29.2749L94.5784 28.2774C94.0809 29.0089 93.4 29.491 92.4206 29.491C91.4416 29.491 90.7447 29.042 90.2964 28.1613L96.1545 25.7343L95.9557 25.2357ZM49.2828 23.7896V25.6512H53.7303C53.5976 26.6984 53.249 27.4629 52.7179 27.9949C52.0709 28.6434 51.0585 29.358 49.2828 29.358C46.5444 29.358 44.4037 27.1473 44.4037 24.4046C44.4037 21.6619 46.5444 19.4509 49.2828 19.4509C50.7599 19.4509 51.8383 20.0328 52.635 20.7808L53.946 19.4678C52.8343 18.4037 51.3571 17.5893 49.2828 17.5893C45.532 17.5893 42.3789 20.6479 42.3789 24.4046C42.3789 28.1613 45.532 31.2197 49.2828 31.2197C51.3076 31.2197 52.8343 30.5551 54.029 29.3081C55.2571 28.0779 55.639 26.3493 55.639 24.9532C55.639 24.5207 55.6059 24.1221 55.5391 23.7896H49.2828ZM60.6954 29.491C59.3675 29.491 58.2223 28.3939 58.2223 26.8314C58.2223 25.2522 59.3675 24.1717 60.6954 24.1717C62.0228 24.1717 63.168 25.2522 63.168 26.8314C63.168 28.3939 62.0228 29.491 60.6954 29.491ZM60.6954 22.4431C58.2721 22.4431 56.2972 24.2881 56.2972 26.8314C56.2972 29.358 58.2721 31.2197 60.6954 31.2197C63.1181 31.2197 65.0931 29.358 65.0931 26.8314C65.0931 24.2881 63.1181 22.4431 60.6954 22.4431ZM70.2891 29.491C68.9617 29.491 67.8164 28.3939 67.8164 26.8314C67.8164 25.2522 68.9617 24.1717 70.2891 24.1717C71.6166 24.1717 72.7618 25.2522 72.7618 26.8314C72.7618 28.3939 71.6166 29.491 70.2891 29.491H70.2891ZM70.2891 22.4431C67.866 22.4431 65.8914 24.2881 65.8914 26.8314C65.8914 29.358 67.866 31.2197 70.2891 31.2197C72.712 31.2197 74.6869 29.358 74.6869 26.8314C74.6869 24.2881 72.712 22.4431 70.2891 22.4431H70.2891Z"
      fill="white" />
    <path
      d="M10.9263 7.85337C10.5806 8.16577 10.3742 8.68684 10.3742 9.37851V9.22215V32.0464V31.8961C10.3742 32.5348 10.5512 33.0281 10.8509 33.3458L10.9275 33.4192V33.4195C11.1701 33.6388 11.4812 33.7552 11.8377 33.7548C12.1861 33.7548 12.5781 33.6436 12.9918 33.4087L27.9442 24.8992L33.0802 21.976C33.7325 21.6048 34.0987 21.126 34.1599 20.6383V20.6363C34.0987 20.1474 33.7325 19.669 33.0803 19.2978L27.9437 16.3749L12.9918 7.86543C12.5772 7.63009 12.185 7.51843 11.8357 7.51843C11.4796 7.51843 11.1689 7.6345 10.9263 7.85337H10.9263Z"
      fill="#00C1FF" />
    <path
      d="M10.9275 33.4191L10.8509 33.3457C10.5512 33.0281 10.3742 32.5347 10.3742 31.896V32.0463V9.22771V9.37841C10.3742 8.68675 10.5806 8.16568 10.9263 7.85328L23.6893 20.6366L10.9275 33.4191Z"
      fill="url(#paint0_linear_44_1195)" />
    <path
      d="M27.9437 24.8992L23.6888 20.6367L27.9434 16.3748L33.0798 19.2977C33.7321 19.6689 34.0983 20.1474 34.1595 20.6362V20.6382C34.0983 21.1259 33.7321 21.6048 33.0798 21.9759L27.9438 24.8991"
      fill="url(#paint1_linear_44_1195)" />
    <path
      d="M11.838 33.7546C11.4815 33.755 11.1704 33.6385 10.9278 33.4192V33.4189L23.6895 20.6364L27.9445 24.8989L12.992 33.4084C12.5783 33.6434 12.1863 33.7546 11.838 33.7546Z"
      fill="url(#paint2_linear_44_1195)" />
  </symbol>
  <symbol viewBox="0 0 140 42" id="icon-appstore">
    <rect x="0.534614" y="0.367378" width="141.492" height="41.2651" rx="3.3064" fill="black" stroke="#A6A6A6"
      stroke-width="0.734756" />
    <path
      d="M39.0062 20.3175C38.9829 17.5299 41.2877 16.175 41.3889 16.1128C40.0808 14.2128 38.0563 13.9481 37.3477 13.9247C35.6502 13.7456 33.9995 14.9448 33.1352 14.9448C32.2553 14.9448 30.916 13.9481 29.4833 13.9714C27.6378 14.0026 25.9014 15.0694 24.9593 16.7357C23.0048 20.1228 24.4609 25.1062 26.3375 27.8471C27.2797 29.1864 28.3698 30.6892 29.8103 30.6347C31.2119 30.5802 31.7414 29.7392 33.431 29.7392C35.1129 29.7392 35.6035 30.6347 37.0674 30.6035C38.578 30.5802 39.5201 29.2565 40.4312 27.9016C41.5135 26.3677 41.9495 24.8493 41.9651 24.7714C41.9262 24.7558 39.0374 23.6501 39.0062 20.3175Z"
      fill="white" />
    <path
      d="M36.2426 12.1258C36.9979 11.1836 37.5118 9.89884 37.3716 8.5907C36.2815 8.63742 34.9111 9.34599 34.1246 10.2726C33.4316 11.0902 32.8087 12.4217 32.9644 13.6753C34.1947 13.7688 35.4561 13.0524 36.2426 12.1258Z"
      fill="white" />
    <path
      d="M59.3448 30.4398H57.3826L56.3081 27.0605H52.5705L51.5505 30.4398H49.6428L53.3414 18.9391H55.6306L59.3448 30.4398ZM55.9888 25.6433L55.0155 22.6455C54.9143 22.334 54.7196 21.6177 54.4393 20.4808H54.4004C54.2836 20.9714 54.1045 21.6955 53.8553 22.6455L52.8975 25.6433H55.9888Z"
      fill="white" />
    <path
      d="M68.8523 26.196C68.8523 27.6054 68.4708 28.7189 67.6999 29.5365C67.0147 30.2684 66.1581 30.6266 65.1459 30.6266C64.048 30.6266 63.2615 30.2373 62.7788 29.4508V33.8035H60.9334V24.8723C60.9334 23.9846 60.91 23.0814 60.8633 22.147H62.4829L62.5841 23.4629H62.6153C63.2304 22.474 64.1648 21.9757 65.4106 21.9757C66.3917 21.9757 67.2015 22.365 67.8556 23.1359C68.5253 23.9146 68.8523 24.9268 68.8523 26.196ZM66.9757 26.2583C66.9757 25.4485 66.7966 24.7867 66.4307 24.265C66.0336 23.7199 65.4963 23.4474 64.8266 23.4474C64.375 23.4474 63.9623 23.6031 63.5886 23.899C63.2226 24.2027 62.9734 24.592 62.8644 25.0825C62.8099 25.3084 62.7788 25.4952 62.7788 25.6432V27.0292C62.7788 27.6288 62.9657 28.1427 63.3316 28.5554C63.6976 28.968 64.1804 29.1783 64.7721 29.1783C65.4651 29.1783 66.0024 28.9057 66.3917 28.3763C66.7811 27.839 66.9757 27.1382 66.9757 26.2583Z"
      fill="white" />
    <path
      d="M78.3829 26.196C78.3829 27.6054 78.0014 28.7189 77.2305 29.5365C76.5453 30.2684 75.6888 30.6266 74.6765 30.6266C73.5786 30.6266 72.7922 30.2373 72.3094 29.4508V33.8035H70.464V24.8723C70.464 23.9846 70.4406 23.0814 70.3939 22.147H72.0135L72.1148 23.4629H72.1459C72.761 22.474 73.6954 21.9757 74.9413 21.9757C75.9224 21.9757 76.7322 22.365 77.3863 23.1359C78.0559 23.9146 78.3829 24.9268 78.3829 26.196ZM76.5064 26.2583C76.5064 25.4485 76.3273 24.7867 75.9613 24.265C75.5642 23.7199 75.0269 23.4474 74.3573 23.4474C73.9057 23.4474 73.493 23.6031 73.1192 23.899C72.7532 24.2027 72.5119 24.592 72.3951 25.0825C72.3406 25.3084 72.3094 25.4952 72.3094 25.6432V27.0292C72.3094 27.6288 72.4963 28.1427 72.8623 28.5554C73.2282 28.968 73.711 29.1783 74.3028 29.1783C74.9958 29.1783 75.5408 28.9057 75.9224 28.3763C76.3195 27.839 76.5064 27.1382 76.5064 26.2583Z"
      fill="white" />
    <path
      d="M89.0503 27.2164C89.0503 28.1975 88.7077 28.9917 88.0303 29.6069C87.2828 30.2765 86.2394 30.6113 84.9001 30.6113C83.662 30.6113 82.6731 30.3699 81.9256 29.895L82.3539 28.361C83.1637 28.836 84.0513 29.0774 85.0169 29.0774C85.7099 29.0774 86.2549 28.9216 86.6365 28.6102C87.0258 28.2987 87.2205 27.8782 87.2205 27.3565C87.2205 26.8894 87.0569 26.5 86.7455 26.1808C86.4262 25.8615 85.8967 25.5656 85.157 25.2931C83.1247 24.5378 82.1203 23.4399 82.1203 21.9994C82.1203 21.0572 82.4784 20.2863 83.187 19.679C83.8956 19.0794 84.8378 18.7758 86.0135 18.7758C87.0569 18.7758 87.929 18.9548 88.622 19.3208L88.1548 20.8158C87.5008 20.4654 86.7688 20.2864 85.9435 20.2864C85.2972 20.2864 84.7833 20.4499 84.4173 20.7613C84.1136 21.0494 83.9579 21.392 83.9579 21.8047C83.9579 22.2564 84.137 22.6379 84.4874 22.926C84.7911 23.1985 85.3517 23.4944 86.1615 23.8137C87.1504 24.2108 87.8745 24.678 88.3417 25.2152C88.8167 25.7525 89.0503 26.4222 89.0503 27.2164Z"
      fill="white" />
    <path
      d="M95.1554 23.5333H93.1231V27.559C93.1231 28.579 93.4813 29.0929 94.1976 29.0929C94.5247 29.0929 94.7972 29.0618 95.0152 29.0073L95.0697 30.4088C94.7038 30.5412 94.2288 30.6113 93.637 30.6113C92.9051 30.6113 92.3444 30.3855 91.9317 29.9417C91.5191 29.4978 91.3166 28.7503 91.3166 27.7069V23.5255H90.1097V22.1473H91.3166V20.6289L93.1231 20.0839V22.1473H95.1554V23.5333Z"
      fill="white" />
    <path
      d="M104.297 26.2272C104.297 27.5042 103.931 28.5476 103.207 29.3652C102.444 30.2061 101.432 30.6266 100.17 30.6266C98.9554 30.6266 97.9821 30.2217 97.2579 29.4197C96.5338 28.6177 96.1756 27.5976 96.1756 26.3674C96.1756 25.0826 96.5494 24.0314 97.2891 23.2138C98.0366 22.3962 99.0411 21.9835 100.302 21.9835C101.517 21.9835 102.498 22.3884 103.238 23.1982C103.947 23.9769 104.297 24.9891 104.297 26.2272ZM102.389 26.2661C102.389 25.503 102.226 24.8568 101.899 24.3117C101.509 23.6498 100.957 23.3228 100.24 23.3228C99.5005 23.3228 98.932 23.6498 98.5505 24.3117C98.2157 24.8568 98.0599 25.5186 98.0599 26.3051C98.0599 27.0681 98.2235 27.7222 98.5505 28.2595C98.9476 28.9213 99.5082 29.2484 100.225 29.2484C100.925 29.2484 101.478 28.9136 101.883 28.2439C102.218 27.6833 102.389 27.0292 102.389 26.2661Z"
      fill="white" />
    <path
      d="M110.292 23.7666C110.113 23.7355 109.918 23.7199 109.708 23.7199C109.062 23.7199 108.556 23.9613 108.205 24.4518C107.902 24.8801 107.746 25.4329 107.746 26.087V30.4397H105.901V24.7555C105.901 23.7978 105.885 22.9257 105.846 22.147H107.45L107.52 23.7355H107.575C107.769 23.1904 108.073 22.7466 108.494 22.4195C108.906 22.1237 109.35 21.9757 109.825 21.9757C109.996 21.9757 110.152 21.9913 110.284 22.0069L110.292 23.7666Z"
      fill="white" />
    <path
      d="M118.53 25.9002C118.53 26.2272 118.507 26.5075 118.46 26.7333H112.932C112.955 27.5509 113.22 28.1816 113.734 28.6099C114.201 28.9914 114.801 29.1861 115.54 29.1861C116.358 29.1861 117.105 29.0537 117.775 28.7968L118.063 30.0738C117.277 30.4164 116.35 30.5877 115.283 30.5877C113.999 30.5877 112.986 30.2061 112.254 29.4509C111.522 28.6956 111.156 27.6755 111.156 26.4063C111.156 25.1605 111.499 24.1171 112.184 23.2839C112.901 22.3962 113.866 21.9524 115.081 21.9524C116.272 21.9524 117.183 22.3962 117.791 23.2839C118.281 24.0003 118.53 24.8646 118.53 25.9002ZM116.771 25.4252C116.786 24.8801 116.662 24.4052 116.412 24.008C116.093 23.4941 115.603 23.2372 114.949 23.2372C114.349 23.2372 113.858 23.4863 113.485 23.9847C113.181 24.3818 112.994 24.8646 112.94 25.4174L116.771 25.4252Z"
      fill="white" />
    <path
      d="M55.1015 14.8277H54.136L53.6065 13.1692H51.7689L51.2628 14.8277H50.3284L52.1426 9.17468H53.2639L55.1015 14.8277ZM53.443 12.4684L52.968 10.989C52.9213 10.841 52.8279 10.4828 52.6799 9.92219H52.6643C52.602 10.1636 52.5242 10.514 52.3918 10.989L51.9246 12.4684H53.443Z"
      fill="white" />
    <path
      d="M59.6483 10.7477L58.1066 14.8278H57.2267L55.7317 10.7477H56.705L57.398 12.9046C57.5148 13.2627 57.616 13.6053 57.6939 13.9324H57.7173C57.7873 13.6365 57.8886 13.2939 58.0132 12.9046L58.6984 10.7477H59.6483Z"
      fill="white" />
    <path
      d="M62.9343 14.8277L62.8642 14.3605H62.8408C62.5605 14.7343 62.1634 14.9212 61.6495 14.9212C60.9175 14.9212 60.4036 14.4073 60.4036 13.722C60.4036 12.7176 61.2757 12.1959 62.7863 12.1959V12.118C62.7863 11.5807 62.4982 11.316 61.9376 11.316C61.5327 11.316 61.1823 11.4172 60.8708 11.6197L60.6839 11.0279C61.0577 10.7943 61.5327 10.6775 62.0855 10.6775C63.1523 10.6775 63.6896 11.2381 63.6896 12.3672V13.87C63.6896 14.2827 63.7051 14.6019 63.7518 14.8433L62.9343 14.8277ZM62.8097 12.7954C61.8052 12.7954 61.2991 13.0368 61.2991 13.6208C61.2991 14.0491 61.556 14.2593 61.922 14.2593C62.3814 14.2593 62.8097 13.9089 62.8097 13.4261V12.7954Z"
      fill="white" />
  </symbol>
</svg>